<svg xmlns="http://www.w3.org/2000/svg" width="325" height="325" viewBox="0 0 325.00000000000006 325.00000000000006"><defs><clipPath id="a"><path d="M0 25h300v300H0z"/></clipPath></defs><path fill="none" stroke="#000" d="M150 325V25M0 175h300" stroke-width="2" opacity=".1"/><path fill="none" stroke="#000" d="M7.05 169.4c-.35 2.1-4.2 5.25-5.25 5.6 1.05.35 4.9 3.5 5.25 5.6" stroke-width="2" stroke-linejoin="round" stroke-linecap="round"/><path fill="none" stroke="#000" d="M150 175H1.05" stroke-width="2"/><path fill="none" stroke="#000" d="M294.45 180.6c.35-2.1 4.2-5.25 5.25-5.6-1.05-.35-4.9-3.5-5.25-5.6" stroke-width="2" stroke-linejoin="round" stroke-linecap="round"/><path fill="none" stroke="#000" d="M150 175h148.95" stroke-width="2"/><path fill="none" stroke="#000" d="M145.15 318.7c2.1.35 5.25 4.2 5.6 5.25.35-1.05 3.5-4.9 5.6-5.25" stroke-width="2" stroke-linejoin="round" stroke-linecap="round"/><path fill="none" stroke="#000" d="M150 175v148.95" stroke-width="2"/><path fill="none" stroke="#000" d="M156.35 31.3c-2.1-.35-5.25-4.2-5.6-5.25-.35 1.05-3.5 4.9-5.6 5.25" stroke-width="2" stroke-linejoin="round" stroke-linecap="round"/><path fill="none" stroke="#000" d="M150 175V26.05" stroke-width="2"/><path fill="none" stroke="#11accd" d="M0 367l.5-9.504.5-9.315.5-9.128.5-8.942.5-8.759.5-8.58.5-8.4.5-8.225.5-8.051.5-7.88.5-7.71.5-7.543.5-7.378.5-7.215.5-7.054.5-6.896.5-6.739.5-6.584.5-6.432.5-6.282.5-6.133.5-5.986.5-5.843.5-5.7.5-5.559.5-5.421.5-5.284.5-5.15.5-5.017.5-4.886.5-4.756.5-4.63.5-4.505.5-4.38.5-4.26.5-4.139.5-4.021.5-3.905.5-3.79.5-3.677.5-3.566.5-3.457.5-3.349.5-3.242.5-3.139.5-3.035.5-2.934.5-2.835.5-2.736.5-2.64.5-2.546.5-2.452.5-2.36.5-2.271.5-2.182.5-2.094.5-2.009.5-1.924.5-1.842.5-1.76.5-1.681.5-1.602.5-1.526.5-1.449.5-1.375.5-1.302.5-1.231.5-1.16.5-1.092.5-1.024.5-.958.5-.892.5-.83.5-.766.5-.705.5-.645.5-.587.5-.529.5-.472.5-.417.5-.364.5-.31.5-.259.5-.208.5-.158.5-.11.5-.063.5-.017.5.028.5.073.5.115.5.157.5.199.5.238.5.277.5.315.5.353.5.388.5.423.5.457.5.49.5.524.5.554.5.584.5.614.5.643.5.671.5.698.5.724.5.749.5.774.5.797.5.82.5.843.5.863.5.885.5.904.5.923.5.941.5.96.5.976.5.992.5 1.007.5 1.023.5 1.037.5 1.05.5 1.063.5 1.075.5 1.087.5 1.097.5 1.108.5 1.118.5 1.127.5 1.135.5 1.143.5 1.151.5 1.158.5 1.163.5 1.17.5 1.175.5 1.18.5 1.183.5 1.187.5 1.19.5 1.194.5 1.196.5 1.197.5 1.199.5 1.2L75 91l.5 1.2.5 1.2.5 1.198.5 1.198.5 1.195.5 1.194.5 1.191.5 1.189.5 1.185.5 1.182.5 1.178.5 1.174.5 1.17.5 1.164.5 1.16.5 1.154.5 1.148.5 1.142.5 1.135.5 1.129.5 1.123.5 1.115.5 1.107.5 1.1.5 1.092.5 1.084.5 1.075.5 1.067.5 1.058.5 1.049.5 1.04.5 1.031.5 1.021.5 1.011.5 1.001.5.991.5.981.5.97.5.96.5.949.5.938.5.927.5.916.5.905.5.894.5.882.5.87.5.859.5.848.5.835.5.824.5.812.5.799.5.788.5.776.5.763.5.752.5.739.5.727.5.714.5.703.5.69.5.677.5.666.5.653.5.641.5.628.5.616.5.604.5.592.5.579.5.568.5.555.5.543.5.531.5.519.5.507.5.495.5.484.5.471.5.46.5.448.5.437.5.426.5.414.5.402.5.392.5.38.5.37.5.359.5.348.5.337.5.327.5.316.5.306.5.296.5.286.5.276.5.266.5.257.5.247.5.238.5.228.5.22.5.21.5.202.5.194.5.185.5.176.5.169.5.161.5.153.5.145.5.138.5.13.5.124.5.117.5.11.5.103.5.098.5.091.5.085.5.079.5.074.5.068.5.063.5.058.5.054.5.049.5.044.5.04.5.037.5.032.5.029.5.025.5.023.5.019.5.017.5.014.5.011.5.01.5.008.5.006.5.004.5.004.5.002.5.001.5.001h2l.5.001.5.001.5.002.5.004.5.004.5.006.5.008.5.01.5.011.5.014.5.017.5.019.5.023.5.025.5.029.5.032.5.037.5.04.5.044.5.049.5.054.5.058.5.063.5.068.5.074.5.079.5.085.5.091.5.098.5.103.5.11.5.117.5.124.5.13.5.138.5.145.5.153.5.161.5.169.5.176.5.185.5.194.5.202.5.21.5.22.5.228.5.238.5.247.5.257.5.266.5.276.5.286.5.296.5.306.5.316.5.327.5.337.5.348.5.359.5.37.5.38.5.392.5.402.5.414.5.426.5.437.5.448.5.46.5.471.5.484.5.495.5.507.5.519.5.531.5.543.5.555.5.568.5.579.5.592.5.604.5.616.5.628.5.641.5.653.5.666.5.677.5.69.5.703.5.714.5.727.5.739.5.752.5.763.5.776.5.788.5.799.5.812.5.824.5.835.5.848.5.859.5.87.5.882.5.894.5.905.5.916.5.927.5.938.5.949.5.96.5.97.5.981.5.991.5 1.001.5 1.011.5 1.021.5 1.031.5 1.04.5 1.049.5 1.058.5 1.067.5 1.075.5 1.084.5 1.092.5 1.1.5 1.107.5 1.115.5 1.123.5 1.129.5 1.135.5 1.142.5 1.148.5 1.154.5 1.16.5 1.164.5 1.17.5 1.174.5 1.178.5 1.182.5 1.185.5 1.189.5 1.191.5 1.194.5 1.195.5 1.198.5 1.199.5 1.199.5 1.2.5 1.2.5 1.199.5 1.199.5 1.197.5 1.196.5 1.193.5 1.191.5 1.187.5 1.184.5 1.179.5 1.175.5 1.17.5 1.163.5 1.158.5 1.151.5 1.143.5 1.135.5 1.127.5 1.118.5 1.108.5 1.097.5 1.087.5 1.075.5 1.063.5 1.05.5 1.037.5 1.023.5 1.007.5.992.5.976.5.96.5.941.5.923.5.904.5.885.5.863.5.843.5.82.5.797.5.774.5.749.5.724.5.698.5.671.5.643.5.614.5.584.5.554.5.523.5.491.5.457.5.423.5.388.5.353.5.315.5.277.5.238.5.199.5.157.5.115.5.073.5.028.5-.017.5-.063.5-.11.5-.158.5-.208.5-.259.5-.311.5-.363.5-.417.5-.473.5-.528.5-.587.5-.645.5-.705.5-.767.5-.829.5-.892.5-.958.5-1.024.5-1.091.5-1.161.5-1.231.5-1.302.5-1.375.5-1.449.5-1.526.5-1.602.5-1.68.5-1.761.5-1.842.5-1.924.5-2.009.5-2.094.5-2.182.5-2.27.5-2.361.5-2.452.5-2.545.5-2.641.5-2.736.5-2.835.5-2.934.5-3.036.5-3.138.5-3.242.5-3.349.5-3.457.5-3.566.5-3.677.5-3.79.5-3.905.5-4.021.5-4.139.5-4.26.5-4.38.5-4.505.5-4.63.5-4.756.5-4.886.5-5.017.5-5.15.5-5.284.5-5.421.5-5.559.5-5.7.5-5.843.5-5.986.5-6.133.5-6.282.5-6.432.5-6.584.5-6.739.5-6.896.5-7.054.5-7.215.5-7.378.5-7.543.5-7.71.5-7.88.5-8.05.5-8.225.5-8.401.5-8.58.5-8.76.5-8.942.5-9.127.5-9.315L300-17" stroke-width="3" clip-path="url(#a)"/><ellipse cx="75" cy="91" rx="4" ry="4" stroke="#000" stroke-width="2" clip-path="url(#a)" stroke-dasharray="0"/><ellipse cx="150" cy="175" rx="4" ry="4" stroke="#000" stroke-width="2" clip-path="url(#a)" stroke-dasharray="0"/><ellipse cx="225" cy="259" rx="4" ry="4" stroke="#000" stroke-width="2" clip-path="url(#a)" stroke-dasharray="0"/><ellipse cx="255.75" cy="310.756" rx="4" ry="4" stroke="#000" stroke-width="2" clip-path="url(#a)" stroke-dasharray="0"/></svg>
